# xmcd
#
# Track frame offsets: 
#        150
#        15037
#        27659
#        40619
#        53189
#        66411
#        81598
#        95060
#        107090
#        121947
#        136594
#        149299
#        161314
#        174964
#        188381
#        205496
#        219701
#        232998
#        247300
#        260365
#        270482
#        283127
#        296162
#        309639
#        323356
#
# Disc length: 4495 seconds
#
# Revision: 0
# Processed by: cddbd v1.5.2PL0 Copyright (c) Steve Scherf et al.
# Submitted via: ExactAudioCopy v1.2
#
DISCID=69118d19
DTITLE=Various Artist - The Rough Guide to Hokum Blues
DYEAR=2018
DGENRE=Blues
TTITLE0=Bo Carter - Cigarette Blues
TTITLE1=Blind Boy Fuller - Truckin' My Blues Away No. 2 (Take 2)
TTITLE2=Big Bill Broonzy - Hokum Stomp
TTITLE3=Bessie Smith - Need a Little Sugar in My Bowl
TTITLE4=Blind Blake - Too Tight Blues No. 2
TTITLE5=Rufus and Ben Quillian - Satisfaction Blues
TTITLE6=Charley Jordan - Keep It Clean
TTITLE7=Lucille Bogan - Barbecue Bess
TTITLE8=Allen Brothers - Bow Wow Blues
TTITLE9=Dallas String Band With Coley Jones - Hokum Blues
TTITLE10=Kansas Joe and Memphis Minnie - What's the Matter With the Mill
TTITLE10=?
TTITLE11=Bogus Ben Covington - Adam and Eve in the Garden
TTITLE12=Barbecue Bob - Honey Your Going Too Fast
TTITLE13=Papa Charlie Jackson - Shake That Thing
TTITLE14=Lil Johnson - Sam the Hot Dog Man
TTITLE15=Charley Patton - Shake It and Break It (But Don't Let It Fall
TTITLE15=Mama)
TTITLE16=Noah Lewis' Jug Band - Selling the Jelly
TTITLE17=Ma Rainey - Ma Rainey's Black Bottom
TTITLE18=Casey Bill Weldon - Your Wagon's Worn Out Now
TTITLE19=Frankie 'Half-Pint' Jaxon - Can't You Wait Till You Get Home
TTITLE20=Mississippi John Hurt - Candy Man Blues
TTITLE21=Blind Willie McTell - Warm It Up to Me
TTITLE22=Blind Lemon Jefferson - Black Snake Moan
TTITLE23=Tampa Red and Georgia Tom - It's Tight Like That
TTITLE24=Walter Coleman - Mama Let Me Lay It on You
EXTD=
EXTT0=
EXTT1=
EXTT2=
EXTT3=
EXTT4=
EXTT5=
EXTT6=
EXTT7=
EXTT8=
EXTT9=
EXTT10=
EXTT11=
EXTT12=
EXTT13=
EXTT14=
EXTT15=
EXTT16=
EXTT17=
EXTT18=
EXTT19=
EXTT20=
EXTT21=
EXTT22=
EXTT23=
EXTT24=
PLAYORDER=
